solid Visualization Toolkit generated SLA File
 facet normal 1 0 0
  outer loop
   vertex 0 0.23000000417232513 -0.004999999888241291
   vertex 0 -0.070000000298023224 0.014999999664723873
   vertex 0 -0.070000000298023224 -0.004999999888241291
  endloop
 endfacet
 facet normal 1 0 -0
  outer loop
   vertex 0 -0.070000000298023224 0.014999999664723873
   vertex 0 0.23000000417232513 -0.004999999888241291
   vertex 0 0.23000000417232513 0.014999999664723873
  endloop
 endfacet
 facet normal -1 0 0
  outer loop
   vertex 0.20000000298023224 -0.070000000298023224 0.014999999664723873
   vertex 0.20000000298023224 0.23000000417232513 -0.004999999888241291
   vertex 0.20000000298023224 -0.070000000298023224 -0.004999999888241291
  endloop
 endfacet
 facet normal -1 0 0
  outer loop
   vertex 0.20000000298023224 0.23000000417232513 -0.004999999888241291
   vertex 0.20000000298023224 -0.070000000298023224 0.014999999664723873
   vertex 0.20000000298023224 0.23000000417232513 0.014999999664723873
  endloop
 endfacet
 facet normal 0 1 0
  outer loop
   vertex 0 -0.070000000298023224 0.014999999664723873
   vertex 0.20000000298023224 -0.070000000298023224 -0.004999999888241291
   vertex 0 -0.070000000298023224 -0.004999999888241291
  endloop
 endfacet
 facet normal -0 1 0
  outer loop
   vertex 0.20000000298023224 -0.070000000298023224 -0.004999999888241291
   vertex 0 -0.070000000298023224 0.014999999664723873
   vertex 0.20000000298023224 -0.070000000298023224 0.014999999664723873
  endloop
 endfacet
 facet normal 0 -1 0
  outer loop
   vertex 0.20000000298023224 0.23000000417232513 -0.004999999888241291
   vertex 0 0.23000000417232513 0.014999999664723873
   vertex 0 0.23000000417232513 -0.004999999888241291
  endloop
 endfacet
 facet normal 0 -1 0
  outer loop
   vertex 0 0.23000000417232513 0.014999999664723873
   vertex 0.20000000298023224 0.23000000417232513 -0.004999999888241291
   vertex 0.20000000298023224 0.23000000417232513 0.014999999664723873
  endloop
 endfacet
 facet normal 0 0 1
  outer loop
   vertex 0.20000000298023224 -0.070000000298023224 -0.004999999888241291
   vertex 0 0.23000000417232513 -0.004999999888241291
   vertex 0 -0.070000000298023224 -0.004999999888241291
  endloop
 endfacet
 facet normal 0 -0 1
  outer loop
   vertex 0 0.23000000417232513 -0.004999999888241291
   vertex 0.20000000298023224 -0.070000000298023224 -0.004999999888241291
   vertex 0.20000000298023224 0.23000000417232513 -0.004999999888241291
  endloop
 endfacet
 facet normal 0 0 -1
  outer loop
   vertex 0 0.23000000417232513 0.014999999664723873
   vertex 0.20000000298023224 -0.070000000298023224 0.014999999664723873
   vertex 0 -0.070000000298023224 0.014999999664723873
  endloop
 endfacet
 facet normal 0 0 -1
  outer loop
   vertex 0.20000000298023224 -0.070000000298023224 0.014999999664723873
   vertex 0 0.23000000417232513 0.014999999664723873
   vertex 0.20000000298023224 0.23000000417232513 0.014999999664723873
  endloop
 endfacet
endsolid
