solid Visualization Toolkit generated SLA File
 facet normal 1 0 0
  outer loop
   vertex -0.05000000074505806 0.20499999821186066 0
   vertex -0.05000000074505806 -0.045000001788139343 0.0099999997764825821
   vertex -0.05000000074505806 -0.045000001788139343 0
  endloop
 endfacet
 facet normal 1 0 -0
  outer loop
   vertex -0.05000000074505806 -0.045000001788139343 0.0099999997764825821
   vertex -0.05000000074505806 0.20499999821186066 0
   vertex -0.05000000074505806 0.20499999821186066 0.0099999997764825821
  endloop
 endfacet
 facet normal -1 0 0
  outer loop
   vertex 0.25 -0.045000001788139343 0.0099999997764825821
   vertex 0.25 0.20499999821186066 0
   vertex 0.25 -0.045000001788139343 0
  endloop
 endfacet
 facet normal -1 0 0
  outer loop
   vertex 0.25 0.20499999821186066 0
   vertex 0.25 -0.045000001788139343 0.0099999997764825821
   vertex 0.25 0.20499999821186066 0.0099999997764825821
  endloop
 endfacet
 facet normal 0 1 0
  outer loop
   vertex -0.05000000074505806 -0.045000001788139343 0.0099999997764825821
   vertex 0.25 -0.045000001788139343 0
   vertex -0.05000000074505806 -0.045000001788139343 0
  endloop
 endfacet
 facet normal -0 1 0
  outer loop
   vertex 0.25 -0.045000001788139343 0
   vertex -0.05000000074505806 -0.045000001788139343 0.0099999997764825821
   vertex 0.25 -0.045000001788139343 0.0099999997764825821
  endloop
 endfacet
 facet normal 0 -1 0
  outer loop
   vertex 0.25 0.20499999821186066 0
   vertex -0.05000000074505806 0.20499999821186066 0.0099999997764825821
   vertex -0.05000000074505806 0.20499999821186066 0
  endloop
 endfacet
 facet normal 0 -1 0
  outer loop
   vertex -0.05000000074505806 0.20499999821186066 0.0099999997764825821
   vertex 0.25 0.20499999821186066 0
   vertex 0.25 0.20499999821186066 0.0099999997764825821
  endloop
 endfacet
 facet normal 0 0 1
  outer loop
   vertex 0.25 -0.045000001788139343 0
   vertex -0.05000000074505806 0.20499999821186066 0
   vertex -0.05000000074505806 -0.045000001788139343 0
  endloop
 endfacet
 facet normal 0 -0 1
  outer loop
   vertex -0.05000000074505806 0.20499999821186066 0
   vertex 0.25 -0.045000001788139343 0
   vertex 0.25 0.20499999821186066 0
  endloop
 endfacet
 facet normal 0 0 -1
  outer loop
   vertex -0.05000000074505806 0.20499999821186066 0.0099999997764825821
   vertex 0.25 -0.045000001788139343 0.0099999997764825821
   vertex -0.05000000074505806 -0.045000001788139343 0.0099999997764825821
  endloop
 endfacet
 facet normal 0 0 -1
  outer loop
   vertex 0.25 -0.045000001788139343 0.0099999997764825821
   vertex -0.05000000074505806 0.20499999821186066 0.0099999997764825821
   vertex 0.25 0.20499999821186066 0.0099999997764825821
  endloop
 endfacet
endsolid
