solid Visualization Toolkit generated SLA File
 facet normal -1 0 0
  outer loop
   vertex 0 0.046999998390674591 0
   vertex 0 0.046999998390674591 0.0099999997764825821
   vertex 0 0.047200001776218414 0
  endloop
 endfacet
 facet normal -1 0 0
  outer loop
   vertex 0 0.047200001776218414 0.0099999997764825821
   vertex 0 0.047200001776218414 0
   vertex 0 0.046999998390674591 0.0099999997764825821
  endloop
 endfacet
 facet normal 1 0 0
  outer loop
   vertex 0.20000000298023224 0.046999998390674591 0
   vertex 0.20000000298023224 0.047200001776218414 0
   vertex 0.20000000298023224 0.046999998390674591 0.0099999997764825821
  endloop
 endfacet
 facet normal 1 -0 0
  outer loop
   vertex 0.20000000298023224 0.047200001776218414 0.0099999997764825821
   vertex 0.20000000298023224 0.046999998390674591 0.0099999997764825821
   vertex 0.20000000298023224 0.047200001776218414 0
  endloop
 endfacet
 facet normal 0 -1 0
  outer loop
   vertex 0 0.046999998390674591 0
   vertex 0.20000000298023224 0.046999998390674591 0
   vertex 0 0.046999998390674591 0.0099999997764825821
  endloop
 endfacet
 facet normal 0 -1 0
  outer loop
   vertex 0.20000000298023224 0.046999998390674591 0.0099999997764825821
   vertex 0 0.046999998390674591 0.0099999997764825821
   vertex 0.20000000298023224 0.046999998390674591 0
  endloop
 endfacet
 facet normal 0 1 0
  outer loop
   vertex 0 0.047200001776218414 0
   vertex 0 0.047200001776218414 0.0099999997764825821
   vertex 0.20000000298023224 0.047200001776218414 0
  endloop
 endfacet
 facet normal 0 1 -0
  outer loop
   vertex 0.20000000298023224 0.047200001776218414 0.0099999997764825821
   vertex 0.20000000298023224 0.047200001776218414 0
   vertex 0 0.047200001776218414 0.0099999997764825821
  endloop
 endfacet
 facet normal 0 0 -1
  outer loop
   vertex 0 0.046999998390674591 0
   vertex 0 0.047200001776218414 0
   vertex 0.20000000298023224 0.046999998390674591 0
  endloop
 endfacet
 facet normal 0 0 -1
  outer loop
   vertex 0.20000000298023224 0.047200001776218414 0
   vertex 0.20000000298023224 0.046999998390674591 0
   vertex 0 0.047200001776218414 0
  endloop
 endfacet
 facet normal 0 0 1
  outer loop
   vertex 0 0.046999998390674591 0.0099999997764825821
   vertex 0.20000000298023224 0.046999998390674591 0.0099999997764825821
   vertex 0 0.047200001776218414 0.0099999997764825821
  endloop
 endfacet
 facet normal -0 0 1
  outer loop
   vertex 0.20000000298023224 0.047200001776218414 0.0099999997764825821
   vertex 0 0.047200001776218414 0.0099999997764825821
   vertex 0.20000000298023224 0.046999998390674591 0.0099999997764825821
  endloop
 endfacet
 facet normal 1 0 0
  outer loop
   vertex -0.05000000074505806 0.20499999821186066 0
   vertex -0.05000000074505806 -0.045000001788139343 0.0099999997764825821
   vertex -0.05000000074505806 -0.045000001788139343 0
  endloop
 endfacet
 facet normal 1 0 -0
  outer loop
   vertex -0.05000000074505806 -0.045000001788139343 0.0099999997764825821
   vertex -0.05000000074505806 0.20499999821186066 0
   vertex -0.05000000074505806 0.20499999821186066 0.0099999997764825821
  endloop
 endfacet
 facet normal -1 0 0
  outer loop
   vertex 0.25 -0.045000001788139343 0.0099999997764825821
   vertex 0.25 0.20499999821186066 0
   vertex 0.25 -0.045000001788139343 0
  endloop
 endfacet
 facet normal -1 0 0
  outer loop
   vertex 0.25 0.20499999821186066 0
   vertex 0.25 -0.045000001788139343 0.0099999997764825821
   vertex 0.25 0.20499999821186066 0.0099999997764825821
  endloop
 endfacet
 facet normal 0 1 0
  outer loop
   vertex -0.05000000074505806 -0.045000001788139343 0.0099999997764825821
   vertex 0.25 -0.045000001788139343 0
   vertex -0.05000000074505806 -0.045000001788139343 0
  endloop
 endfacet
 facet normal -0 1 0
  outer loop
   vertex 0.25 -0.045000001788139343 0
   vertex -0.05000000074505806 -0.045000001788139343 0.0099999997764825821
   vertex 0.25 -0.045000001788139343 0.0099999997764825821
  endloop
 endfacet
 facet normal 0 -1 0
  outer loop
   vertex 0.25 0.20499999821186066 0
   vertex -0.05000000074505806 0.20499999821186066 0.0099999997764825821
   vertex -0.05000000074505806 0.20499999821186066 0
  endloop
 endfacet
 facet normal 0 -1 0
  outer loop
   vertex -0.05000000074505806 0.20499999821186066 0.0099999997764825821
   vertex 0.25 0.20499999821186066 0
   vertex 0.25 0.20499999821186066 0.0099999997764825821
  endloop
 endfacet
 facet normal 0 0 1
  outer loop
   vertex 0.25 -0.045000001788139343 0
   vertex -0.05000000074505806 0.20499999821186066 0
   vertex -0.05000000074505806 -0.045000001788139343 0
  endloop
 endfacet
 facet normal 0 -0 1
  outer loop
   vertex -0.05000000074505806 0.20499999821186066 0
   vertex 0.25 -0.045000001788139343 0
   vertex 0.25 0.20499999821186066 0
  endloop
 endfacet
 facet normal 0 0 -1
  outer loop
   vertex -0.05000000074505806 0.20499999821186066 0.0099999997764825821
   vertex 0.25 -0.045000001788139343 0.0099999997764825821
   vertex -0.05000000074505806 -0.045000001788139343 0.0099999997764825821
  endloop
 endfacet
 facet normal 0 0 -1
  outer loop
   vertex 0.25 -0.045000001788139343 0.0099999997764825821
   vertex -0.05000000074505806 0.20499999821186066 0.0099999997764825821
   vertex 0.25 0.20499999821186066 0.0099999997764825821
  endloop
 endfacet
 facet normal 1 0 0
  outer loop
   vertex 0 0.23000000417232513 -0.004999999888241291
   vertex 0 -0.070000000298023224 0.014999999664723873
   vertex 0 -0.070000000298023224 -0.004999999888241291
  endloop
 endfacet
 facet normal 1 0 -0
  outer loop
   vertex 0 -0.070000000298023224 0.014999999664723873
   vertex 0 0.23000000417232513 -0.004999999888241291
   vertex 0 0.23000000417232513 0.014999999664723873
  endloop
 endfacet
 facet normal -1 0 0
  outer loop
   vertex 0.20000000298023224 -0.070000000298023224 0.014999999664723873
   vertex 0.20000000298023224 0.23000000417232513 -0.004999999888241291
   vertex 0.20000000298023224 -0.070000000298023224 -0.004999999888241291
  endloop
 endfacet
 facet normal -1 0 0
  outer loop
   vertex 0.20000000298023224 0.23000000417232513 -0.004999999888241291
   vertex 0.20000000298023224 -0.070000000298023224 0.014999999664723873
   vertex 0.20000000298023224 0.23000000417232513 0.014999999664723873
  endloop
 endfacet
 facet normal 0 1 0
  outer loop
   vertex 0 -0.070000000298023224 0.014999999664723873
   vertex 0.20000000298023224 -0.070000000298023224 -0.004999999888241291
   vertex 0 -0.070000000298023224 -0.004999999888241291
  endloop
 endfacet
 facet normal -0 1 0
  outer loop
   vertex 0.20000000298023224 -0.070000000298023224 -0.004999999888241291
   vertex 0 -0.070000000298023224 0.014999999664723873
   vertex 0.20000000298023224 -0.070000000298023224 0.014999999664723873
  endloop
 endfacet
 facet normal 0 -1 0
  outer loop
   vertex 0.20000000298023224 0.23000000417232513 -0.004999999888241291
   vertex 0 0.23000000417232513 0.014999999664723873
   vertex 0 0.23000000417232513 -0.004999999888241291
  endloop
 endfacet
 facet normal 0 -1 0
  outer loop
   vertex 0 0.23000000417232513 0.014999999664723873
   vertex 0.20000000298023224 0.23000000417232513 -0.004999999888241291
   vertex 0.20000000298023224 0.23000000417232513 0.014999999664723873
  endloop
 endfacet
 facet normal 0 0 1
  outer loop
   vertex 0.20000000298023224 -0.070000000298023224 -0.004999999888241291
   vertex 0 0.23000000417232513 -0.004999999888241291
   vertex 0 -0.070000000298023224 -0.004999999888241291
  endloop
 endfacet
 facet normal 0 -0 1
  outer loop
   vertex 0 0.23000000417232513 -0.004999999888241291
   vertex 0.20000000298023224 -0.070000000298023224 -0.004999999888241291
   vertex 0.20000000298023224 0.23000000417232513 -0.004999999888241291
  endloop
 endfacet
 facet normal 0 0 -1
  outer loop
   vertex 0 0.23000000417232513 0.014999999664723873
   vertex 0.20000000298023224 -0.070000000298023224 0.014999999664723873
   vertex 0 -0.070000000298023224 0.014999999664723873
  endloop
 endfacet
 facet normal 0 0 -1
  outer loop
   vertex 0.20000000298023224 -0.070000000298023224 0.014999999664723873
   vertex 0 0.23000000417232513 0.014999999664723873
   vertex 0.20000000298023224 0.23000000417232513 0.014999999664723873
  endloop
 endfacet
endsolid
