solid Visualization Toolkit generated SLA File
 facet normal -1 0 0
  outer loop
   vertex 0 0.046999998390674591 0
   vertex 0 0.046999998390674591 0.0099999997764825821
   vertex 0 0.047200001776218414 0
  endloop
 endfacet
 facet normal -1 0 0
  outer loop
   vertex 0 0.047200001776218414 0.0099999997764825821
   vertex 0 0.047200001776218414 0
   vertex 0 0.046999998390674591 0.0099999997764825821
  endloop
 endfacet
 facet normal 1 0 0
  outer loop
   vertex 0.20000000298023224 0.046999998390674591 0
   vertex 0.20000000298023224 0.047200001776218414 0
   vertex 0.20000000298023224 0.046999998390674591 0.0099999997764825821
  endloop
 endfacet
 facet normal 1 -0 0
  outer loop
   vertex 0.20000000298023224 0.047200001776218414 0.0099999997764825821
   vertex 0.20000000298023224 0.046999998390674591 0.0099999997764825821
   vertex 0.20000000298023224 0.047200001776218414 0
  endloop
 endfacet
 facet normal 0 -1 0
  outer loop
   vertex 0 0.046999998390674591 0
   vertex 0.20000000298023224 0.046999998390674591 0
   vertex 0 0.046999998390674591 0.0099999997764825821
  endloop
 endfacet
 facet normal 0 -1 0
  outer loop
   vertex 0.20000000298023224 0.046999998390674591 0.0099999997764825821
   vertex 0 0.046999998390674591 0.0099999997764825821
   vertex 0.20000000298023224 0.046999998390674591 0
  endloop
 endfacet
 facet normal 0 1 0
  outer loop
   vertex 0 0.047200001776218414 0
   vertex 0 0.047200001776218414 0.0099999997764825821
   vertex 0.20000000298023224 0.047200001776218414 0
  endloop
 endfacet
 facet normal 0 1 -0
  outer loop
   vertex 0.20000000298023224 0.047200001776218414 0.0099999997764825821
   vertex 0.20000000298023224 0.047200001776218414 0
   vertex 0 0.047200001776218414 0.0099999997764825821
  endloop
 endfacet
 facet normal 0 0 -1
  outer loop
   vertex 0 0.046999998390674591 0
   vertex 0 0.047200001776218414 0
   vertex 0.20000000298023224 0.046999998390674591 0
  endloop
 endfacet
 facet normal 0 0 -1
  outer loop
   vertex 0.20000000298023224 0.047200001776218414 0
   vertex 0.20000000298023224 0.046999998390674591 0
   vertex 0 0.047200001776218414 0
  endloop
 endfacet
 facet normal 0 0 1
  outer loop
   vertex 0 0.046999998390674591 0.0099999997764825821
   vertex 0.20000000298023224 0.046999998390674591 0.0099999997764825821
   vertex 0 0.047200001776218414 0.0099999997764825821
  endloop
 endfacet
 facet normal -0 0 1
  outer loop
   vertex 0.20000000298023224 0.047200001776218414 0.0099999997764825821
   vertex 0 0.047200001776218414 0.0099999997764825821
   vertex 0.20000000298023224 0.046999998390674591 0.0099999997764825821
  endloop
 endfacet
endsolid
